<svg viewBox="0 0 800 500" xmlns="http://www.w3.org/2000/svg">
    <!-- Background -->
    <rect width="800" height="500" fill="white"/>
    
    <!-- Grid lines -->
    <g stroke="#eee" stroke-width="1">
        <line x1="100" y1="50" x2="100" y2="400"/>
        <line x1="100" y1="400" x2="700" y2="400"/>
        <!-- Horizontal grid lines -->
        <line x1="100" y1="50" x2="700" y2="50" opacity="0.5"/>
        <line x1="100" y1="167" x2="700" y2="167" opacity="0.5"/>
        <line x1="100" y1="284" x2="700" y2="284" opacity="0.5"/>
    </g>

    <!-- Supply curve (exponential growth) -->
    <path d="M 100 400 Q 250 380, 400 300 T 700 50" 
          fill="none" 
          stroke="#4444ff" 
          stroke-width="3"/>

    <!-- Price curve (inverse of supply) -->
    <path d="M 100 50 Q 250 150, 400 300 T 700 380" 
          fill="none" 
          stroke="#ff4444" 
          stroke-width="3"/>

    <!-- Axis labels -->
    <g font-family="Arial" font-size="14">
        <!-- Y axis -->
        <text x="30" y="50" text-anchor="middle">100%</text>
        <text x="30" y="167" text-anchor="middle">66%</text>
        <text x="30" y="284" text-anchor="middle">33%</text>
        <text x="30" y="400" text-anchor="middle">0%</text>
        
        <!-- X axis -->
        <text x="100" y="430" text-anchor="middle">0</text>
        <text x="300" y="430" text-anchor="middle">6</text>
        <text x="500" y="430" text-anchor="middle">12</text>
        <text x="700" y="430" text-anchor="middle">18</text>
    </g>

    <!-- Axis titles -->
    <g font-family="Arial" font-size="16" font-weight="bold">
        <text x="400" y="470" text-anchor="middle">Months Since Launch</text>
        <text x="20" y="225" text-anchor="middle" transform="rotate(-90, 20, 225)">Percentage</text>
    </g>

    <!-- Legend -->
    <g font-family="Arial" font-size="14">
        <rect x="550" y="20" width="15" height="15" fill="#4444ff"/>
        <text x="575" y="32">Token Supply</text>
        <rect x="550" y="45" width="15" height="15" fill="#ff4444"/>
        <text x="575" y="57">Token Price</text>
    </g>

    <!-- Title -->
    <text x="400" y="30" font-family="Arial" font-size="20" font-weight="bold" text-anchor="middle">
        Token Supply vs Price Over Time
    </text>
</svg>